<?xml version="1.0" encoding="UTF-8" standalone="no"?>
<svg
   xmlns:dc="http://purl.org/dc/elements/1.1/"
   xmlns:cc="http://creativecommons.org/ns#"
   xmlns:rdf="http://www.w3.org/1999/02/22-rdf-syntax-ns#"
   xmlns:svg="http://www.w3.org/2000/svg"
   xmlns="http://www.w3.org/2000/svg"
   xmlns:sodipodi="http://sodipodi.sourceforge.net/DTD/sodipodi-0.dtd"
   xmlns:inkscape="http://www.inkscape.org/namespaces/inkscape"
   inkscape:export-ydpi="96"
   inkscape:export-xdpi="96"
   inkscape:export-filename="/Users/rrosa/Downloads/modfighter.png"
   inkscape:version="1.0 (4035a4f, 2020-05-01)"
   sodipodi:docname="modfighter.svg"
   viewBox="0 0 192.00001 54"
   height="54"
   width="192"
   id="svg901"
   version="1.1">
  <metadata
     id="metadata907">
    <rdf:RDF>
      <cc:Work
         rdf:about="">
        <dc:format>image/svg+xml</dc:format>
        <dc:type
           rdf:resource="http://purl.org/dc/dcmitype/StillImage" />
        <dc:title></dc:title>
      </cc:Work>
    </rdf:RDF>
  </metadata>
  <defs
     id="defs905" />
  <sodipodi:namedview
     units="px"
     fit-margin-bottom="0"
     fit-margin-right="0"
     fit-margin-left="0"
     fit-margin-top="0"
     inkscape:current-layer="g909"
     inkscape:window-maximized="0"
     inkscape:window-y="23"
     inkscape:window-x="0"
     inkscape:cy="28.142039"
     inkscape:cx="104.23069"
     inkscape:zoom="2.4140625"
     showgrid="false"
     id="namedview903"
     inkscape:window-height="688"
     inkscape:window-width="1280"
     inkscape:pageshadow="2"
     inkscape:pageopacity="0"
     guidetolerance="10"
     gridtolerance="10"
     objecttolerance="10"
     borderopacity="1"
     bordercolor="#666666"
     pagecolor="#ffffff" />
  <g
     transform="translate(32.230994,8.8174313)"
     id="g909"
     inkscape:label="Image"
     inkscape:groupmode="layer">
    <g
       transform="translate(0,0.28002558)"
       id="g980">
      <path
         style="fill:#d4e5e6;fill-opacity:1;stroke:#000000;stroke-width:0.576588;stroke-linecap:butt;stroke-linejoin:miter;stroke-miterlimit:4;stroke-dasharray:none;stroke-opacity:1"
         d="M 158.9131,27.875983 139.32282,17.448896 96.350578,14.605145 91.295021,8.917644 18.305413,20.292648 -7.2883462,-8.4608347 l -13.2708388,6.6354189 2.527778,1.2638894 0.315973,36.3368184 8.8472257,0.315972 7.2673636,3.159723 5.0555575,-5.055557 20.5382012,3.791668 43.288209,-0.631944 1.263889,-3.791668 6.951392,-5.055558 66.986136,2.527779 z"
         id="path921" />
      <path
         style="fill:#151616;fill-opacity:1;stroke:none;stroke-width:1.52555px;stroke-linecap:butt;stroke-linejoin:miter;stroke-opacity:1"
         d="m -17.900526,21.313944 -12.453801,3.718289 -0.223426,2.135137 -1.653241,1.691576 2.192639,2.176761 0.315973,1.579862 7.583336,2.527777 4.423612,0.631946 0.188382,-9.68014"
         id="path923"
         sodipodi:nodetypes="ccccccccc" />
      <path
         style="fill:#404760;fill-opacity:1;stroke:#000000;stroke-width:0;stroke-linecap:butt;stroke-linejoin:miter;stroke-miterlimit:4;stroke-dasharray:none;stroke-opacity:1"
         d="m 30.944305,38.145084 -0.236978,1.579862 -8.610248,0.315973 -0.947916,4.581598 43.920154,-0.631945 6.319446,-1.895833 -4.867176,-2.04898 -14.881095,-0.636786 0.315973,-2.053819 z"
         id="path925"
         sodipodi:nodetypes="cccccccccc" />
      <path
         style="fill:#5785a5;fill-opacity:1;stroke:#000000;stroke-width:0.576588;stroke-linecap:butt;stroke-linejoin:miter;stroke-miterlimit:4;stroke-dasharray:none;stroke-opacity:1"
         d="M 91.295021,8.917644 113.72906,8.2857 l 6.63541,1.57986 18.95835,7.583336 -42.972242,-2.843751 -5.055557,-5.687501"
         id="path927" />
      <path
         style="fill:#b9d7d9;fill-opacity:1;stroke:#000000;stroke-width:0.576588;stroke-linecap:butt;stroke-linejoin:miter;stroke-miterlimit:4;stroke-dasharray:none;stroke-opacity:1"
         d="M 142.48254,31.035707 112.60667,21.42406 96.519985,19.636652 68.368287,20.977208 33.513803,25.892584 3.127843,26.339437 -1.2372148e-4,30.80796 68.545012,33.563486 75.496404,28.507928 Z"
         id="path950"
         sodipodi:nodetypes="cccccccccc" />
      <path
         style="fill:none;stroke:#000000;stroke-width:0.576588;stroke-linecap:butt;stroke-linejoin:miter;stroke-miterlimit:4;stroke-dasharray:none;stroke-opacity:1"
         d="m -18.031407,-0.5615264 9.5410891,0.089822 -0.3778904,36.5629684 -8.8472257,-0.315972 z"
         id="path954" />
    </g>
  </g>
</svg>
